<svg width="375" height="506" viewBox="0 0 375 506" fill="none" xmlns="http://www.w3.org/2000/svg">
<path d="M318.716 262.243C405.062 336.279 527.168 270.358 548.861 244.718L293.796 -232.22L-179.244 20.7601C-179.379 29.7661 -170.716 58.9273 -134.981 103.525C-90.3125 159.271 2.26827 220.586 73.8982 200.473C240.706 153.636 205.005 164.744 318.716 262.243Z" fill="#EEF7FE"/>
<path fill-rule="evenodd" clip-rule="evenodd" d="M379.379 110.382C377.307 110.382 375.308 110.693 373.423 111.264C369.984 96.7768 356.964 86 341.425 86C325.982 86 313.028 96.6446 309.493 110.996C307.896 110.597 306.227 110.382 304.506 110.382C293.181 110.382 284 119.564 284 130.889C284 142.215 293.181 151.396 304.506 151.396H336.41C338.045 151.646 339.72 151.776 341.425 151.776C343.13 151.776 344.805 151.646 346.441 151.396H379.379C390.704 151.396 399.885 142.215 399.885 130.889C399.885 119.564 390.704 110.382 379.379 110.382Z" fill="#DDEEFB"/>
<path fill-rule="evenodd" clip-rule="evenodd" d="M236.453 53.7844C235.791 53.7844 235.153 53.8835 234.551 54.066C233.453 49.4406 229.296 46 224.335 46C219.404 46 215.268 49.3984 214.14 53.9803C213.63 53.8529 213.097 53.7844 212.547 53.7844C208.931 53.7844 206 56.7157 206 60.3314C206 63.9474 208.931 66.8785 212.547 66.8785H222.733C223.256 66.9584 223.79 67 224.335 67C224.879 67 225.414 66.9584 225.936 66.8785H236.453C240.069 66.8785 243 63.9474 243 60.3314C243 56.7157 240.069 53.7844 236.453 53.7844Z" fill="#DDEEFB"/>
<path fill-rule="evenodd" clip-rule="evenodd" d="M25.4529 138.784C24.7913 138.784 24.153 138.883 23.5512 139.066C22.4532 134.441 18.2962 131 13.3348 131C8.40433 131 4.26822 134.398 3.13955 138.98C2.62972 138.853 2.09669 138.784 1.54746 138.784C-2.06855 138.784 -5 141.716 -5 145.331C-5 148.947 -2.06855 151.879 1.54746 151.879H11.7335C12.2556 151.958 12.7904 152 13.3348 152C13.8793 152 14.4141 151.958 14.9362 151.879H25.4529C29.0687 151.879 32 148.947 32 145.331C32 141.716 29.0687 138.784 25.4529 138.784Z" fill="#DDEEFB"/>
<path fill-rule="evenodd" clip-rule="evenodd" d="M69.4529 21.7844C68.7913 21.7844 68.153 21.8835 67.5512 22.066C66.4532 17.4406 62.2962 14 57.3348 14C52.4043 14 48.2682 17.3984 47.1396 21.9803C46.6297 21.8529 46.0967 21.7844 45.5475 21.7844C41.9315 21.7844 39 24.7157 39 28.3314C39 31.9474 41.9315 34.8785 45.5475 34.8785H55.7335C56.2556 34.9584 56.7904 35 57.3348 35C57.8793 35 58.4141 34.9584 58.9362 34.8785H69.4529C73.0687 34.8785 76 31.9474 76 28.3314C76 24.7157 73.0687 21.7844 69.4529 21.7844Z" fill="#DDEEFB"/>
</svg>
